<svg width="45" height="42" viewBox="0 0 45 42" fill="none" xmlns="http://www.w3.org/2000/svg">
<g opacity="0.5">
<path d="M29.4909 6.73278C32.1804 4.23674 36.1142 4.18432 38.292 6.20553C40.4737 8.23055 40.4151 11.8904 37.7239 14.3881L33.1792 18.606C32.6312 19.1148 32.6329 19.9381 33.183 20.4448C33.7333 20.9515 34.6237 20.9499 35.1718 20.4411L39.7164 16.2232C43.3001 12.8971 43.7501 7.58685 40.2846 4.37044C36.8149 1.15023 31.0839 1.56993 27.4984 4.8977L18.4091 13.3337C14.8254 16.6597 14.3755 21.9701 17.841 25.1864C18.3891 25.6952 19.2795 25.6967 19.8296 25.19C20.3799 24.6833 20.3816 23.8601 19.8336 23.3513C17.6517 21.3264 17.7105 17.6665 20.4017 15.1687L29.4909 6.73278Z" fill="#1C274C"/>
<path d="M27.1596 16.4175C26.6115 15.9088 25.7211 15.9072 25.1707 16.4139C24.6206 16.9207 24.6189 17.7439 25.167 18.2525C27.3487 20.2776 27.2901 23.9373 24.5989 26.4351L15.5096 34.8711C12.8202 37.3672 8.88632 37.4197 6.70858 35.3985C4.5267 33.3734 4.58548 29.7135 7.27667 27.2157L11.8214 22.9978C12.3695 22.489 12.3678 21.6659 11.8175 21.159C11.2673 20.6523 10.3769 20.6539 9.82879 21.1627L5.28409 25.3806C1.70039 28.7068 1.25047 34.017 4.71598 37.2335C8.18563 40.4537 13.9166 40.034 17.5022 36.7062L26.5914 28.2702C30.1751 24.9441 30.6251 19.6339 27.1596 16.4175Z" fill="#1C274C"/>
</g>
</svg>
